<svg width="23" height="22" viewBox="0 0 23 22" fill="none" xmlns="http://www.w3.org/2000/svg">
<g clip-path="url(#clip0_4_279)">
<path d="M19.2782 3.2218C17.2006 1.14417 14.4382 0 11.5 0C8.5618 0 5.79942 1.14417 3.7218 3.2218C1.64417 5.29942 0.5 8.0618 0.5 11C0.5 13.9382 1.64421 16.7005 3.7218 18.7782C5.79938 20.8559 8.5618 22 11.5 22C14.4382 22 17.2006 20.8558 19.2782 18.7782C21.3558 16.7006 22.5 13.9382 22.5 11C22.5 8.0618 21.3558 5.29947 19.2782 3.2218ZM11.5 10.3125C13.2059 10.3125 14.5938 11.7003 14.5938 13.4062C14.5938 14.8189 13.6417 16.0127 12.3457 16.3815C12.2526 16.408 12.1875 16.4918 12.1875 16.5886V17.1681C12.1875 17.5383 11.903 17.8568 11.5332 17.8742C11.1384 17.8928 10.8125 17.5782 10.8125 17.1875V16.5885C10.8125 16.4919 10.7478 16.4081 10.6549 16.3817C9.3645 16.0148 8.41489 14.83 8.40629 13.4255C8.40402 13.0506 8.69878 12.7298 9.07355 12.7191C9.46246 12.7079 9.78125 13.0198 9.78125 13.4062C9.78125 14.3946 10.6199 15.1908 11.6228 15.1207C12.4695 15.0615 13.1553 14.3757 13.2145 13.529C13.2845 12.526 12.4883 11.6875 11.5 11.6875C9.7941 11.6875 8.40625 10.2997 8.40625 8.59375C8.40625 7.18107 9.35831 5.98731 10.6543 5.61846C10.7474 5.59195 10.8125 5.50821 10.8125 5.4114V4.83192C10.8125 4.4617 11.097 4.14318 11.4668 4.12577C11.8616 4.10721 12.1875 4.42179 12.1875 4.8125V5.41153C12.1875 5.50808 12.2522 5.59187 12.3451 5.61829C13.6355 5.98525 14.5851 7.17002 14.5937 8.57454C14.596 8.94944 14.3012 9.27021 13.9264 9.28095C13.5375 9.29212 13.2188 8.98017 13.2188 8.59375C13.2188 7.60538 12.3801 6.80917 11.3772 6.8793C10.5305 6.93847 9.84467 7.62433 9.78555 8.47099C9.71551 9.47401 10.5117 10.3125 11.5 10.3125Z" fill="#FD7900"/>
</g>
<defs>
<clipPath id="clip0_4_279">
<rect width="22" height="22" fill="white" transform="translate(0.5)"/>
</clipPath>
</defs>
</svg>
