<svg width="23" height="22" viewBox="0 0 23 22" fill="none" xmlns="http://www.w3.org/2000/svg">
<path fill-rule="evenodd" clip-rule="evenodd" d="M11.5 22C17.5751 22 22.5 17.0751 22.5 11C22.5 4.92487 17.5751 0 11.5 0C5.42487 0 0.5 4.92487 0.5 11C0.5 17.0751 5.42487 22 11.5 22ZM11.5784 2.51292C11.5 2.58692 11.5 2.70607 11.5 2.94436V10.7112C11.5 10.8521 11.5 10.9226 11.4665 10.9806C11.433 11.0386 11.372 11.0738 11.25 11.1443L4.52366 15.0277C4.3173 15.1468 4.21411 15.2064 4.18925 15.3114C4.16439 15.4163 4.22732 15.5119 4.35317 15.7032C5.08444 16.8144 6.0662 17.7418 7.2222 18.4092C8.52281 19.1602 9.99817 19.5555 11.5 19.5555C13.0018 19.5555 14.4771 19.1602 15.7778 18.4092C17.0784 17.6583 18.1584 16.5783 18.9093 15.2777C19.6602 13.9771 20.0555 12.5017 20.0555 10.9999C20.0555 9.4981 19.6602 8.02275 18.9093 6.72214C18.1584 5.42153 17.0784 4.34149 15.7778 3.59059C14.6218 2.92317 13.3277 2.53666 11.9997 2.45896C11.7712 2.44559 11.6569 2.43891 11.5784 2.51292Z" fill="#FD7900"/>
</svg>
