<svg width="23" height="22" viewBox="0 0 23 22" fill="none" xmlns="http://www.w3.org/2000/svg">
<path d="M2.33331 8.24992C2.33331 6.6862 2.33331 5.90434 2.74661 5.36573C2.85301 5.22706 2.97713 5.10295 3.11579 4.99655C3.6544 4.58325 4.43626 4.58325 5.99998 4.58325H17C18.5637 4.58325 19.3456 4.58325 19.8842 4.99655C20.0228 5.10295 20.147 5.22706 20.2534 5.36573C20.6666 5.90434 20.6666 6.6862 20.6666 8.24992C20.6666 8.64085 20.6666 8.83631 20.5633 8.97097C20.5367 9.00563 20.5057 9.03666 20.471 9.06326C20.3364 9.16659 20.1409 9.16659 19.75 9.16659H3.24998C2.85905 9.16659 2.66359 9.16659 2.52893 9.06326C2.49427 9.03666 2.46324 9.00563 2.43664 8.97097C2.33331 8.83631 2.33331 8.64085 2.33331 8.24992Z" fill="#FD7900"/>
<path fill-rule="evenodd" clip-rule="evenodd" d="M2.33331 16.1667C2.33331 18.0523 2.33331 18.9951 2.9191 19.5809C3.50489 20.1667 4.44769 20.1667 6.33331 20.1667H16.6666C18.5523 20.1667 19.4951 20.1667 20.0809 19.5809C20.6666 18.9951 20.6666 18.0523 20.6666 16.1667V12C20.6666 11.5286 20.6666 11.2929 20.5202 11.1464C20.3738 11 20.1381 11 19.6666 11H3.33331C2.86191 11 2.62621 11 2.47976 11.1464C2.33331 11.2929 2.33331 11.5286 2.33331 12V16.1667ZM6.91665 13.75C6.91665 13.3591 6.91665 13.1636 7.01997 13.029C7.04657 12.9943 7.0776 12.9633 7.11227 12.9367C7.24692 12.8333 7.44238 12.8333 7.83331 12.8333H9.66665C10.0576 12.8333 10.253 12.8333 10.3877 12.9367C10.4224 12.9633 10.4534 12.9943 10.48 13.029C10.5833 13.1636 10.5833 13.3591 10.5833 13.75C10.5833 14.1409 10.5833 14.3364 10.48 14.471C10.4534 14.5057 10.4224 14.5367 10.3877 14.5633C10.253 14.6667 10.0576 14.6667 9.66665 14.6667H7.83331C7.44238 14.6667 7.24692 14.6667 7.11227 14.5633C7.0776 14.5367 7.04657 14.5057 7.01997 14.471C6.91665 14.3364 6.91665 14.1409 6.91665 13.75ZM7.01997 16.6956C6.91665 16.8303 6.91665 17.0257 6.91665 17.4167C6.91665 17.8076 6.91665 18.0031 7.01997 18.1377C7.04657 18.1724 7.0776 18.2034 7.11227 18.23C7.24692 18.3333 7.44238 18.3333 7.83331 18.3333H9.66665C10.0576 18.3333 10.253 18.3333 10.3877 18.23C10.4224 18.2034 10.4534 18.1724 10.48 18.1377C10.5833 18.0031 10.5833 17.8076 10.5833 17.4167C10.5833 17.0257 10.5833 16.8303 10.48 16.6956C10.4534 16.661 10.4224 16.6299 10.3877 16.6033C10.253 16.5 10.0576 16.5 9.66665 16.5H7.83331C7.44238 16.5 7.24692 16.5 7.11227 16.6033C7.0776 16.6299 7.04657 16.661 7.01997 16.6956ZM12.4166 13.75C12.4166 13.3591 12.4166 13.1636 12.52 13.029C12.5466 12.9943 12.5776 12.9633 12.6123 12.9367C12.7469 12.8333 12.9424 12.8333 13.3333 12.8333H15.1666C15.5576 12.8333 15.753 12.8333 15.8877 12.9367C15.9224 12.9633 15.9534 12.9943 15.98 13.029C16.0833 13.1636 16.0833 13.3591 16.0833 13.75C16.0833 14.1409 16.0833 14.3364 15.98 14.471C15.9534 14.5057 15.9224 14.5367 15.8877 14.5633C15.753 14.6667 15.5576 14.6667 15.1666 14.6667H13.3333C12.9424 14.6667 12.7469 14.6667 12.6123 14.5633C12.5776 14.5367 12.5466 14.5057 12.52 14.471C12.4166 14.3364 12.4166 14.1409 12.4166 13.75ZM12.52 16.6956C12.4166 16.8303 12.4166 17.0257 12.4166 17.4167C12.4166 17.8076 12.4166 18.0031 12.52 18.1377C12.5466 18.1724 12.5776 18.2034 12.6123 18.23C12.7469 18.3333 12.9424 18.3333 13.3333 18.3333H15.1666C15.5576 18.3333 15.753 18.3333 15.8877 18.23C15.9224 18.2034 15.9534 18.1724 15.98 18.1377C16.0833 18.0031 16.0833 17.8076 16.0833 17.4167C16.0833 17.0257 16.0833 16.8303 15.98 16.6956C15.9534 16.661 15.9224 16.6299 15.8877 16.6033C15.753 16.5 15.5576 16.5 15.1666 16.5H13.3333C12.9424 16.5 12.7469 16.5 12.6123 16.6033C12.5776 16.6299 12.5466 16.661 12.52 16.6956Z" fill="#FD7900"/>
<path d="M6.91669 2.75L6.91669 5.5" stroke="#FD7900" stroke-width="2" stroke-linecap="round"/>
<path d="M16.0833 2.75L16.0833 5.5" stroke="#FD7900" stroke-width="2" stroke-linecap="round"/>
</svg>
