<svg width="85" height="33" viewBox="0 0 85 33" fill="none" xmlns="http://www.w3.org/2000/svg">
<path d="M17.088 26H0.78V0.799998H5.748V21.32H17.088V26ZM29.8171 7.748C32.3851 7.748 34.5691 8.66 36.3691 10.484C38.1691 12.284 39.0691 14.456 39.0691 17C39.0691 19.544 38.1691 21.716 36.3691 23.516C34.5691 25.316 32.3851 26.216 29.8171 26.216C27.2491 26.216 25.0651 25.316 23.2651 23.516C21.4891 21.716 20.6011 19.544 20.6011 17C20.6011 14.432 21.5011 12.248 23.3011 10.448C25.1011 8.648 27.2731 7.748 29.8171 7.748ZM33.0571 13.544C32.1451 12.632 31.0651 12.176 29.8171 12.176C28.5691 12.176 27.4771 12.632 26.5411 13.544C25.6291 14.432 25.1731 15.584 25.1731 17C25.1731 18.416 25.6291 19.568 26.5411 20.456C27.4531 21.344 28.5451 21.788 29.8171 21.788C31.0651 21.788 32.1451 21.344 33.0571 20.456C33.9931 19.568 34.4611 18.416 34.4611 17C34.4611 15.584 33.9931 14.432 33.0571 13.544ZM45.3348 10.412C47.0148 8.636 49.1148 7.748 51.6348 7.748C54.1548 7.748 56.1468 8.672 57.6108 10.52L57.8628 8H60.9228V23.696C60.9228 26.384 60.1068 28.58 58.4748 30.284C56.8428 32.012 54.6468 32.876 51.8868 32.876C48.8388 32.876 46.1868 31.94 43.9308 30.068L46.5228 27.296C48.4428 28.256 50.2308 28.724 51.8868 28.7C53.2308 28.7 54.2988 28.352 55.0908 27.656C55.8828 26.984 56.2788 26.012 56.2788 24.74V23.732C55.1028 25.028 53.5548 25.676 51.6348 25.676C49.1148 25.676 47.0148 24.8 45.3348 23.048C43.6788 21.296 42.8508 19.196 42.8508 16.748C42.8508 14.276 43.6788 12.164 45.3348 10.412ZM52.0668 12.176C50.8188 12.176 49.7268 12.608 48.7908 13.472C47.8788 14.336 47.4228 15.428 47.4228 16.748C47.4228 18.044 47.8788 19.124 48.7908 19.988C49.7268 20.828 50.8188 21.248 52.0668 21.248C53.2908 21.248 54.3708 20.828 55.3068 19.988C56.2428 19.124 56.7108 18.044 56.7108 16.748C56.7108 15.428 56.2428 14.336 55.3068 13.472C54.3708 12.608 53.2908 12.176 52.0668 12.176ZM75.2038 7.748C77.7718 7.748 79.9558 8.66 81.7558 10.484C83.5558 12.284 84.4558 14.456 84.4558 17C84.4558 19.544 83.5558 21.716 81.7558 23.516C79.9558 25.316 77.7718 26.216 75.2038 26.216C72.6358 26.216 70.4518 25.316 68.6518 23.516C66.8758 21.716 65.9878 19.544 65.9878 17C65.9878 14.432 66.8878 12.248 68.6878 10.448C70.4878 8.648 72.6598 7.748 75.2038 7.748ZM78.4438 13.544C77.5318 12.632 76.4518 12.176 75.2038 12.176C73.9558 12.176 72.8638 12.632 71.9278 13.544C71.0158 14.432 70.5598 15.584 70.5598 17C70.5598 18.416 71.0158 19.568 71.9278 20.456C72.8398 21.344 73.9318 21.788 75.2038 21.788C76.4518 21.788 77.5318 21.344 78.4438 20.456C79.3798 19.568 79.8478 18.416 79.8478 17C79.8478 15.584 79.3798 14.432 78.4438 13.544Z" fill="#FD7900"/>
</svg>
